<?xml version="1.0" encoding="UTF-8"?>
<!DOCTYPE svg PUBLIC "-//W3C//DTD SVG 1.1//EN" "http://www.w3.org/Graphics/SVG/1.1/DTD/svg11.dtd">
<!-- Creator: CorelDRAW 2018 (64 Bit Versão de avaliação) -->
<svg xmlns="http://www.w3.org/2000/svg" xml:space="preserve" width="1873px" height="826px" version="1.1" style="shape-rendering:geometricPrecision; text-rendering:geometricPrecision; image-rendering:optimizeQuality; fill-rule:evenodd; clip-rule:evenodd"
viewBox="0 0 1873 826.34"
 xmlns:xlink="http://www.w3.org/1999/xlink">
 <defs>
  <style type="text/css">
   <![CDATA[
    .fil0 {fill:#FFFFFF;fill-rule:nonzero}
   ]]>
  </style>
 </defs>
 <g id="Camada_x0020_1">
  <metadata id="CorelCorpID_0Corel-Layer"/>
  <path class="fil0" d="M258.64 124.78c-12.67,0 -22.72,4.41 -30.16,13.22 -7.43,8.81 -10.88,21.21 -10.33,37.18l3.31 42.15 41.32 0c19.28,0 34.7,5.23 46.27,15.7 11.57,10.46 17.35,25.61 17.35,45.45 0,19.83 -5.92,35.12 -17.76,45.86 -11.85,10.74 -27.13,16.11 -45.86,16.11l-38.84 0 0 224.77c0,23.13 -6.48,41.86 -19.42,56.19 -12.95,14.32 -31.26,21.48 -54.95,21.48 -23.69,0 -42.01,-7.16 -54.95,-21.48 -12.95,-14.33 -19.42,-33.06 -19.42,-56.19l-0.83 -224.77 -10.74 0c-18.73,0 -34.02,-5.37 -45.86,-16.11 -11.85,-10.74 -17.77,-26.03 -17.77,-45.86 0,-19.84 5.78,-34.99 17.35,-45.45 11.57,-10.47 27,-15.7 46.28,-15.7l10.74 0 0 -54.54c0,-47.93 14.46,-87.04 43.38,-117.34 28.93,-30.3 70.66,-45.45 125.19,-45.45 48.48,0 82.91,10.74 103.3,32.23 12.67,12.12 19,28.37 19,48.75 0,16.53 -4.96,29.89 -14.87,40.08 -9.92,10.19 -21.76,15.29 -35.53,15.29 -9.37,0 -19.15,-1.93 -29.34,-5.79 -10.19,-3.85 -19.14,-5.78 -26.86,-5.78zm421.67 464.4c-41.59,40.76 -98.2,61.15 -169.81,61.15 -71.62,0 -128.22,-20.38 -169.82,-61.15 -41.59,-40.77 -62.39,-94.75 -62.39,-161.96 0,-68.31 20.94,-122.44 62.81,-162.38 37.55,-35.82 86.85,-55.58 147.9,-59.27 5.37,15.31 20.89,42.13 60.55,34.9 -6.55,38.54 44.5,68.75 81.5,36.61 27.44,28.6 60.97,12.12 65.41,6 30.82,37.67 43.88,85.72 43.88,144.14 0,67.21 -18.44,121.2 -60.03,161.96zm-169.81 -66.11c25.34,0 45.44,-8.54 60.32,-25.61 14.87,-17.08 22.31,-40.49 22.31,-70.24 0,-29.2 -7.57,-52.34 -22.72,-69.41 -15.15,-17.08 -35.4,-25.62 -60.74,-25.62 -24.79,0 -44.76,8.26 -59.91,24.79 -15.15,16.53 -22.72,39.94 -22.72,70.24 0,30.3 7.71,53.85 23.13,70.65 15.43,16.8 35.54,25.2 60.33,25.2zm358.56 98.34c-12.67,14.32 -30.85,21.48 -54.54,21.48 -23.68,0 -42,-7.16 -54.95,-21.48 -12.94,-14.33 -19.42,-33.06 -19.42,-56.19l0 -291.7c0,-18.73 5.1,-33.75 15.29,-45.04 10.19,-11.29 24.93,-16.94 44.21,-16.94 18.73,0 33.47,5.51 44.21,16.53 10.74,11.02 16.94,25.06 16.94,42.14l0 10.75 1.65 0c11.02,-22.59 28.51,-40.91 52.48,-54.96 23.96,-14.04 50.81,-21.07 80.56,-21.07 29.2,0 55.64,6.48 79.33,19.42 23.69,12.95 41.59,31.82 53.71,56.61l1.66 0c11.57,-23.14 29.89,-41.6 54.95,-55.37 25.06,-13.77 51.09,-20.66 78.09,-20.66 53.43,0 95.16,18.04 125.19,54.13 30.02,36.08 45.03,89.94 45.03,161.55l0 144.61c0,23.13 -6.47,41.87 -19.42,56.19 -12.94,14.32 -31.26,21.48 -54.95,21.48 -23.69,0 -42,-7.16 -54.95,-21.48 -12.95,-14.33 -19.42,-33.06 -19.42,-56.19l0 -138.83c0,-58.94 -19.83,-88.42 -59.49,-88.42 -20.39,0 -36.23,7.86 -47.52,23.55 -11.29,15.7 -16.11,36.78 -16.11,63.22l0 140.48c0,23.13 -6.48,41.87 -19.42,56.19 -12.94,14.32 -31.27,21.48 -54.95,21.48 -23.69,0 -42.01,-7.16 -54.96,-21.48 -12.94,-14.33 -19.41,-33.06 -19.41,-56.19l0 -138.83c0,-25.89 -4.55,-47.1 -13.64,-63.63 -9.08,-16.52 -23.55,-24.79 -43.38,-24.79 -21.49,0 -38.02,7.86 -49.58,23.55 -11.57,15.7 -17.2,36.78 -17.35,63.22l-0.83 140.48c-0.14,23.13 -6.34,41.86 -19.01,56.19zm767.61 204.93c-66.66,0 -114.63,-11.8 -143.79,-35.53 -18.21,-14.83 -27.26,-33.06 -27.26,-54.54 0,-17.08 5.23,-30.99 15.7,-41.73 10.46,-10.74 25.06,-16.12 43.79,-16.12 12.67,0 29.62,4.14 50.82,12.4 21.21,8.26 40.35,12.4 57.43,12.4 29.2,0 53.02,-7.31 71.48,-21.9 18.45,-14.6 27.68,-35.4 27.68,-62.39l0 -28.1 -1.65 0c-9.92,13.22 -25.62,23.97 -47.1,32.23 -21.48,8.26 -44.07,12.39 -67.76,12.39 -57.29,0 -100.82,-16.94 -130.56,-50.81 -29.75,-33.88 -44.63,-84.43 -44.63,-151.64l0 -144.61c0,-22.58 6.48,-41.04 19.42,-55.36 12.95,-14.32 31.27,-21.49 54.96,-21.49 23.68,0 42,7.17 54.95,21.49 12.94,14.32 19.42,32.78 19.42,55.36l0 133.04c0,57.29 20.93,85.94 62.8,85.94 23.14,0 40.91,-7.58 53.3,-22.72 12.39,-15.15 17.6,-35.94 17.76,-62.39l0.83 -133.87c0.14,-22.58 6.48,-41.04 19.42,-55.36 12.94,-14.32 31.26,-21.49 54.95,-21.49 23.69,0 42.01,7.17 54.95,21.49 12.94,14.32 19.42,32.78 19.42,55.36l0 287.57c0,166.91 -78.78,250.38 -236.33,250.38z"/>
 </g>
</svg>
